<?xml version="1.0" encoding="UTF-8"?>
<!DOCTYPE svg PUBLIC "-//W3C//DTD SVG 1.1//EN" "http://www.w3.org/Graphics/SVG/1.1/DTD/svg11.dtd">
<svg xmlns="http://www.w3.org/2000/svg" version="1.1" width="134px" height="166px" style="shape-rendering:geometricPrecision; text-rendering:geometricPrecision; image-rendering:optimizeQuality; fill-rule:evenodd; clip-rule:evenodd" xmlns:xlink="http://www.w3.org/1999/xlink">
<g><path style="opacity:0.748" fill="#b895ff" d="M -0.5,-0.5 C -0.166667,-0.5 0.166667,-0.5 0.5,-0.5C 0.833333,0.166667 1.16667,0.833333 1.5,1.5C 0.501704,34.6625 0.168371,67.9958 0.5,101.5C 0.166667,101.5 -0.166667,101.5 -0.5,101.5C -0.5,67.5 -0.5,33.5 -0.5,-0.5 Z"/></g>
<g><path style="opacity:1" fill="#8e55ff" d="M 133.5,0.5 C 133.5,34.5 133.5,68.5 133.5,102.5C 128.061,108.36 122.395,114.027 116.5,119.5C 115.833,96.9964 115.167,74.3297 114.5,51.5C 113.893,51.6236 113.56,51.9569 113.5,52.5C 102.856,64.8137 92.1893,77.1471 81.5,89.5C 83.1491,91.6499 84.9824,93.6499 87,95.5C 91.9239,89.4074 97.4239,83.7407 103.5,78.5C 104.483,82.2984 104.817,86.2984 104.5,90.5C 102.777,94.1239 100.11,95.6239 96.5,95C 94.6487,96.6837 92.982,98.5171 91.5,100.5C 93.8623,103.192 96.1956,105.859 98.5,108.5C 100.549,107.118 102.215,105.452 103.5,103.5C 104.494,113.319 104.827,123.319 104.5,133.5C 102.798,136.395 100.464,138.228 97.5,139C 87.0411,127.887 76.7078,116.72 66.5,105.5C 56.5284,116.474 46.5284,127.474 36.5,138.5C 32.6061,138.66 29.9395,136.66 28.5,132.5C 28.1729,122.652 28.5062,112.986 29.5,103.5C 31.4628,104.96 33.2962,106.627 35,108.5C 37.0367,106.294 39.2034,104.294 41.5,102.5C 43.478,100.17 45.478,97.8369 47.5,95.5C 47.8333,94.5 48.5,93.8333 49.5,93.5C 50.9063,93.0269 51.573,92.0269 51.5,90.5C 51.6107,89.8826 51.944,89.3826 52.5,89C 41.2561,77.5945 30.5895,65.7612 20.5,53.5C 20.2172,52.7109 19.7172,52.0442 19,51.5C 18.8321,74.6703 18.3321,97.6703 17.5,120.5C 11.4913,114.49 5.82462,108.157 0.5,101.5C 0.168371,67.9958 0.501704,34.6625 1.5,1.5C 1.42702,3.02694 2.09368,4.02694 3.5,4.5C 12.5059,13.5064 21.1726,22.8397 29.5,32.5C 29.427,34.0269 30.0937,35.0269 31.5,35.5C 37.6203,41.076 43.287,47.076 48.5,53.5C 48.427,55.0269 49.0937,56.0269 50.5,56.5C 56.4438,61.7068 61.9438,67.3735 67,73.5C 67.3826,72.944 67.8826,72.6107 68.5,72.5C 69.9063,72.0269 70.573,71.0269 70.5,69.5C 81.8113,55.8886 93.8113,42.8886 106.5,30.5C 107.906,30.0269 108.573,29.0269 108.5,27.5C 113.463,20.8695 119.13,14.8695 125.5,9.5C 126.906,9.02694 127.573,8.02694 127.5,6.5C 129.167,4.16667 131.167,2.16667 133.5,0.5 Z"/></g>
<g><path style="opacity:0.722" fill="#cfb2ff" d="M 1.5,1.5 C 2.90632,1.97306 3.57298,2.97306 3.5,4.5C 2.09368,4.02694 1.42702,3.02694 1.5,1.5 Z"/></g>
<g><path style="opacity:0.788" fill="#c7a6ff" d="M 127.5,6.5 C 127.573,8.02694 126.906,9.02694 125.5,9.5C 125.427,7.97306 126.094,6.97306 127.5,6.5 Z"/></g>
<g><path style="opacity:0.8" fill="#c9a7ff" d="M 108.5,27.5 C 108.573,29.0269 107.906,30.0269 106.5,30.5C 106.427,28.9731 107.094,27.9731 108.5,27.5 Z"/></g>
<g><path style="opacity:0.769" fill="#ccadff" d="M 29.5,32.5 C 30.9063,32.9731 31.573,33.9731 31.5,35.5C 30.0937,35.0269 29.427,34.0269 29.5,32.5 Z"/></g>
<g><path style="opacity:0.861" fill="#9c6bff" d="M 113.5,52.5 C 113.56,51.9569 113.893,51.6236 114.5,51.5C 115.167,74.3297 115.833,96.9964 116.5,119.5C 116.5,119.833 116.5,120.167 116.5,120.5C 115.833,120.5 115.167,120.5 114.5,120.5C 114.811,97.869 114.478,75.2023 113.5,52.5 Z"/></g>
<g><path style="opacity:0.327" fill="#d5c0ff" d="M 20.5,53.5 C 19.6679,76.3297 19.1679,99.3297 19,122.5C 18.2828,121.956 17.7828,121.289 17.5,120.5C 18.3321,97.6703 18.8321,74.6703 19,51.5C 19.7172,52.0442 20.2172,52.7109 20.5,53.5 Z"/></g>
<g><path style="opacity:0.78" fill="#cdafff" d="M 48.5,53.5 C 49.9063,53.9731 50.573,54.9731 50.5,56.5C 49.0937,56.0269 48.427,55.0269 48.5,53.5 Z"/></g>
<g><path style="opacity:0.784" fill="#cbacff" d="M 70.5,69.5 C 70.573,71.0269 69.9063,72.0269 68.5,72.5C 68.427,70.9731 69.0937,69.9731 70.5,69.5 Z"/></g>
<g><path style="opacity:0.089" fill="#f0e8ff" d="M 29.5,77.5 C 28.5166,81.2984 28.1832,85.2984 28.5,89.5C 27.1889,85.3171 27.1889,80.9838 28.5,76.5C 29.1067,76.6236 29.44,76.9569 29.5,77.5 Z"/></g>
<g><path style="opacity:0.512" fill="#c7aaff" d="M 104.5,90.5 C 104.817,86.2984 104.483,82.2984 103.5,78.5C 103.369,77.6236 103.702,76.9569 104.5,76.5C 105.812,81.3181 105.812,85.9848 104.5,90.5 Z"/></g>
<g><path style="opacity:1" fill="#9c66ff" d="M 29.5,77.5 C 34.667,81.158 38.5003,85.8247 41,91.5C 42.6667,93.1667 44.3333,94.8333 46,96.5C 46.3826,95.944 46.8826,95.6107 47.5,95.5C 45.478,97.8369 43.478,100.17 41.5,102.5C 41.631,101.761 41.4643,101.094 41,100.5C 36.34,97.2604 32.1734,93.5938 28.5,89.5C 28.1832,85.2984 28.5166,81.2984 29.5,77.5 Z"/></g>
<g><path style="opacity:0.718" fill="#ceb1ff" d="M 51.5,90.5 C 51.573,92.0269 50.9063,93.0269 49.5,93.5C 49.427,91.9731 50.0937,90.9731 51.5,90.5 Z"/></g>
<g><path style="opacity:0.081" fill="#efe8ff" d="M 29.5,103.5 C 28.5062,112.986 28.1729,122.652 28.5,132.5C 27.1771,122.659 27.1771,112.659 28.5,102.5C 29.1067,102.624 29.44,102.957 29.5,103.5 Z"/></g>
<g><path style="opacity:0.501" fill="#c5a8ff" d="M 103.5,103.5 C 103.56,102.957 103.893,102.624 104.5,102.5C 105.823,112.993 105.823,123.326 104.5,133.5C 104.827,123.319 104.494,113.319 103.5,103.5 Z"/></g>
<g><path style="opacity:0.643" fill="#dec9ff" d="M 114.5,120.5 C 115.167,120.5 115.833,120.5 116.5,120.5C 115.762,122.76 114.762,122.927 113.5,121C 113.728,120.601 114.062,120.435 114.5,120.5 Z"/></g>
<g><path style="opacity:1" fill="#9158ff" d="M 42.5,148.5 C 42.8333,147.167 43.1667,145.833 43.5,144.5C 46.8333,140.5 50.5,136.833 54.5,133.5C 55.9063,133.027 56.573,132.027 56.5,130.5C 59.7961,126.702 63.2961,123.036 67,119.5C 75.5,128.667 84,137.833 92.5,147C 87.5,152.667 82.5,158.333 77.5,164C 70.5,164.667 63.5,164.667 56.5,164C 51.2563,159.261 46.5897,154.095 42.5,148.5 Z"/></g>
<g><path style="opacity:0.741" fill="#ccadff" d="M 56.5,130.5 C 56.573,132.027 55.9063,133.027 54.5,133.5C 54.427,131.973 55.0937,130.973 56.5,130.5 Z"/></g>
<g><path style="opacity:0.729" fill="#d2b6ff" d="M 43.5,144.5 C 43.1667,145.833 42.8333,147.167 42.5,148.5C 41.1472,146.872 41.4805,145.538 43.5,144.5 Z"/></g>
</svg>
